<?xml version="1.0" encoding="UTF-8"?>
<svg width="20x" height="18px" viewBox="0 0 1024 1024" version="1.1" xmlns="http://www.w3.org/2000/svg" xmlns:xlink="http://www.w3.org/1999/xlink">
    <title>action_chat_send</title>
    <g id="action_chat_send" stroke="none" stroke-width="1" fill="none" fill-rule="evenodd">
        <path d="M956.670357,560.525678 L110.568694,927.643256 C110.568694,927.643256 72.8378547,948.666586 52.0839858,914.247859 C37.357895,889.829168 48.0781839,853.2709 48.0781839,853.2709 C72.1892963,771.596192 114.650797,612.99098 132.238174,552.386114 L474.104754,518.0139 L130.864757,478.06027 L40.982192,170.524298 C40.982192,170.524298 27.324315,129.872992 50.5961165,101.454287 C69.1372568,78.8960673 101.641478,96.6170602 101.641478,96.6170602 C180.994506,128.989268 956.670357,479.176553 956.670357,479.176553 C956.670357,479.176553 987,490.292871 987,518.0139 C987,552.432626 956.670357,560.525678 956.670357,560.525678" id="Fill-1" fill="#00C0C0"></path>
    </g>
</svg>